<?xml version="1.0" standalone="no"?>
<!DOCTYPE svg PUBLIC "-//W3C//DTD SVG 20010904//EN"
 "http://www.w3.org/TR/2001/REC-SVG-20010904/DTD/svg10.dtd">
<svg version="1.0" xmlns="http://www.w3.org/2000/svg"
 width="292.000000pt" height="292.000000pt" viewBox="0 0 292.000000 292.000000"
 preserveAspectRatio="xMidYMid meet">
<metadata>
Created by potrace 1.14, written by Peter Selinger 2001-2017
</metadata>
<g transform="translate(0.000000,292.000000) scale(0.100000,-0.100000)"
fill="#000000" stroke="none">
<path d="M23 2828 c13 -149 159 -2600 155 -2603 -2 -2 -37 -8 -78 -13 l-75 -8
70 -8 c39 -4 76 -9 82 -11 9 -3 13 -29 14 -82 0 -53 3 -72 9 -58 5 11 9 36 9
55 2 74 8 80 68 80 31 0 631 -36 1336 -80 704 -44 1282 -79 1284 -77 1 2 -33
603 -78 1336 -44 733 -79 1334 -77 1336 2 2 37 8 78 13 l75 8 -70 8 c-38 4
-75 9 -82 11 -8 3 -13 32 -15 82 -3 81 -9 71 -23 -39 l-6 -46 -52 4 c-45 4
-2602 164 -2622 164 -4 0 -5 -33 -2 -72z m2667 -155 c1 -38 -172 -1649 -178
-1665 -6 -16 -22 -9 -115 51 -59 38 -145 98 -190 132 -103 80 -267 244 -267
267 0 27 100 143 315 366 234 242 274 306 191 306 -98 0 -252 -132 -461 -393
-60 -75 -113 -137 -116 -137 -4 0 -7 10 -7 23 1 53 -33 347 -46 399 -24 105
-64 135 -105 82 -31 -40 -26 -145 20 -407 17 -101 28 -257 29 -417 1 -350 40
-530 115 -530 13 0 30 7 39 15 32 32 31 87 -4 325 -11 74 -12 160 -2 160 5 0
17 -10 28 -21 40 -45 157 -131 355 -262 l204 -135 -19 -191 c-15 -143 -23
-191 -33 -191 -8 0 -507 -50 -1110 -110 -602 -61 -1098 -108 -1101 -105 -10 9
181 1780 192 1787 29 20 358 -2 501 -33 261 -57 453 -153 516 -257 28 -45 31
-132 7 -177 -46 -85 -172 -163 -303 -186 -63 -11 -212 -7 -247 6 -22 9 -48
143 -58 294 -15 214 -22 237 -68 212 -52 -28 -52 -28 -52 -259 1 -320 48 -665
111 -812 25 -58 39 -66 72 -40 32 25 39 79 27 195 -6 50 -13 120 -17 158 l-6
67 75 0 c117 0 306 59 438 136 68 39 152 122 176 172 23 49 29 129 14 194 -43
180 -195 307 -472 393 -198 61 -493 97 -629 76 -39 -7 -74 -10 -76 -8 -3 4 26
309 31 314 2 2 2166 221 2199 222 19 1 27 -4 27 -16z"/>
</g>
</svg>
